<?xml version="1.0" encoding="UTF-8" standalone="no"?>
<!-- Created with Inkscape (http://www.inkscape.org/) -->

<svg
   width="1920"
   height="1080"
   viewBox="0 0 507.99998 285.75"
   version="1.1"
   id="svg1"
   xml:space="preserve"
   sodipodi:docname="splash.svg"
   inkscape:version="1.3 (0e150ed6c4, 2023-07-21)"
   inkscape:export-filename="splash.png"
   inkscape:export-xdpi="96"
   inkscape:export-ydpi="96"
   xmlns:inkscape="http://www.inkscape.org/namespaces/inkscape"
   xmlns:sodipodi="http://sodipodi.sourceforge.net/DTD/sodipodi-0.dtd"
   xmlns:xlink="http://www.w3.org/1999/xlink"
   xmlns="http://www.w3.org/2000/svg"
   xmlns:svg="http://www.w3.org/2000/svg"><sodipodi:namedview
     id="namedview1"
     pagecolor="#505050"
     bordercolor="#eeeeee"
     borderopacity="1"
     inkscape:showpageshadow="0"
     inkscape:pageopacity="0"
     inkscape:pagecheckerboard="0"
     inkscape:deskcolor="#d1d1d1"
     inkscape:document-units="mm"
     inkscape:zoom="0.51885396"
     inkscape:cx="855.73212"
     inkscape:cy="463.52156"
     inkscape:window-width="1920"
     inkscape:window-height="1011"
     inkscape:window-x="0"
     inkscape:window-y="0"
     inkscape:window-maximized="1"
     inkscape:current-layer="layer1" /><defs
     id="defs1"><rect
       x="560.87869"
       y="198.88478"
       width="1094.5375"
       height="208.92849"
       id="rect1" /><linearGradient
       inkscape:collect="always"
       id="linearGradient1032"><stop
         style="stop-color:#00f072;stop-opacity:1;"
         offset="0"
         id="stop1028" /><stop
         style="stop-color:#35cca3;stop-opacity:1;"
         offset="1"
         id="stop1030" /></linearGradient><rect
       x="68.775719"
       y="420.06464"
       width="604.55365"
       height="140.63232"
       id="rect236" /><linearGradient
       inkscape:collect="always"
       xlink:href="#linearGradient1032"
       id="linearGradient1034"
       x1="50.491833"
       y1="488.71182"
       x2="542.40057"
       y2="450.90762"
       gradientUnits="userSpaceOnUse" /></defs><g
     inkscape:label="Layer 1"
     inkscape:groupmode="layer"
     id="layer1"><g
       transform="matrix(0.26458333,0,0,0.26458333,90.452479,256.27549)"
       id="g11"><path
         style="opacity:0.2"
         d="M 25,56 C 8.6551,53.886 7.9914,45.471 7.9914,45.471 L 8,26 4,21.951 l 5,-7 5,3 4,-4 V 8 l 8,-3 2,5 h 8 l 2,-5 8,3 v 6 l 4,4 5,-3 5,7 -4,4 -0.02,19.471 c 0,0 -0.5,10.29 -16.98,10.529 z"
         id="path1" /><path
         style="fill:#3888c3"
         d="M 25,55 C 8.6551,52.886 7.9914,44.471 7.9914,44.471 L 8,25 4,20.951 l 5,-7 5,3 4,-4 V 7 l 8,-3 2,5 h 8 l 2,-5 8,3 v 6 l 4,4 5,-3 5,7 -4,4 -0.02,19.471 c 0,0 -0.5,10.29 -16.98,10.529 z"
         id="path2" /><circle
         style="opacity:0.2"
         cx="20"
         cy="30"
         r="6"
         id="circle2" /><circle
         style="fill:#ffffff"
         cx="20"
         cy="29"
         r="6"
         id="circle3" /><circle
         style="fill:#353535"
         cx="20"
         cy="29"
         r="4"
         id="circle4" /><circle
         style="opacity:0.2"
         cx="44"
         cy="30"
         r="6"
         id="circle5" /><circle
         style="fill:#ffffff"
         cx="44"
         cy="29"
         r="6"
         id="circle6" /><circle
         style="fill:#353535"
         cx="44"
         cy="29"
         r="4"
         id="circle7" /><path
         style="opacity:0.2;fill:#ffffff"
         d="M 4,21 8.9979,13.995 14,17 18,13 v 1 L 14,18 9.0001,15 C 9.0894,14.961 6.0166,19.192 4.4183,21.417 Z M 60.001,21 54.999,14 49.994,16.998 45.996,12.999 46,14 l 4,4 4.999,-3 4.579,6.405 z M 45.996,7.0006 38.001,4.0001 35.999,9 l 0.002,1 2,-5 L 46,8.0001 Z m -27.994,0 L 26,4.0001 28,9 h 7.999 l 0.002,1 H 28 L 26,5 18,8.0001 Z"
         id="path7" /><path
         style="fill:none;stroke:#000000;stroke-width:4.0017;stroke-linecap:round;stroke-opacity:0.2"
         d="m 32.001,30.001 v 5.998"
         id="path8" /><path
         style="fill:none;stroke:#ffffff;stroke-width:4.0007;stroke-linecap:round"
         d="m 32,29 v 5.996"
         id="path9" /><path
         style="opacity:0.2;fill:none;stroke:#000000;stroke-width:2;stroke-linejoin:round"
         d="m 56,43.001 h -9 v 4 H 37 V 43 H 32 M 8,43.001 h 9 v 4 H 27 V 43 h 5"
         id="path10" /><path
         style="fill:none;stroke:#ffffff;stroke-width:2;stroke-linejoin:round"
         d="m 56,42.001 h -9 v 4 H 37 V 42 H 32 M 8,42.001 h 9 v 4 H 27 V 42 h 5"
         id="path11" /></g><g
       inkscape:label="Layer 1"
       id="layer1-5"
       transform="translate(95.604887,100.68033)"><circle
         style="fill:#eaee86;fill-opacity:0.989675;stroke:none;stroke-width:0;stroke-linejoin:round;stroke-dasharray:none"
         id="path1-3"
         cx="24.6731"
         cy="39.3269"
         r="24.6731" /><circle
         style="fill:#86dfee;fill-opacity:0.989675;stroke:none;stroke-width:0;stroke-linejoin:round;stroke-dasharray:none"
         id="path1-5"
         cx="52.964657"
         cy="12.572023"
         r="8.7287045" /></g><text
       xml:space="preserve"
       transform="matrix(0.26458333,0,0,0.26458333,19.519342,59.458633)"
       id="text1"
       style="font-size:85.3333px;font-family:Montserrat;-inkscape-font-specification:'Montserrat, Normal';white-space:pre;shape-inside:url(#rect1);display:inline;fill:#86dfee;fill-opacity:0.989675;stroke-width:0;stroke-linejoin:round"><tspan
         x="560.87891"
         y="277.31405"
         id="tspan5">Newton's Sandbox 3D&#10;</tspan></text><text
       xml:space="preserve"
       style="font-style:normal;font-variant:normal;font-weight:200;font-stretch:normal;font-size:9.87777px;font-family:Inter;-inkscape-font-specification:'Inter, Ultra-Light';font-variant-ligatures:normal;font-variant-caps:normal;font-variant-numeric:normal;font-variant-east-asian:normal;fill:#86dfee;fill-opacity:0.989675;stroke-width:0;stroke-linejoin:round"
       x="169.16251"
       y="151.90044"
       id="text2"><tspan
         sodipodi:role="line"
         id="tspan2"
         style="stroke-width:0"
         x="169.16251"
         y="151.90044">version 3.0</tspan></text><text
       xml:space="preserve"
       style="font-style:normal;font-variant:normal;font-weight:normal;font-stretch:normal;font-size:11.2889px;font-family:Montserrat;-inkscape-font-specification:'Montserrat, Normal';font-variant-ligatures:normal;font-variant-caps:normal;font-variant-numeric:normal;font-variant-east-asian:normal;fill:#3888c3;fill-opacity:1;stroke-width:0;stroke-linejoin:round"
       x="18.201559"
       y="268.37656"
       id="text3"><tspan
         sodipodi:role="line"
         id="tspan3"
         style="font-style:normal;font-variant:normal;font-weight:normal;font-stretch:normal;font-size:11.2889px;font-family:Montserrat;-inkscape-font-specification:'Montserrat, Normal';font-variant-ligatures:normal;font-variant-caps:normal;font-variant-numeric:normal;font-variant-east-asian:normal;fill:#3888c3;fill-opacity:1;stroke-width:0"
         x="18.201559"
         y="268.37656">Powered by</tspan></text><text
       xml:space="preserve"
       style="font-style:normal;font-variant:normal;font-weight:normal;font-stretch:normal;font-size:11.2889px;font-family:Montserrat;-inkscape-font-specification:'Montserrat, Normal';font-variant-ligatures:normal;font-variant-caps:normal;font-variant-numeric:normal;font-variant-east-asian:normal;fill:#3888c3;fill-opacity:1;stroke-width:0;stroke-linejoin:round"
       x="111.08448"
       y="268.92685"
       id="text4"><tspan
         sodipodi:role="line"
         id="tspan4"
         style="font-style:normal;font-variant:normal;font-weight:normal;font-stretch:normal;font-size:11.2889px;font-family:Montserrat;-inkscape-font-specification:'Montserrat, Normal';font-variant-ligatures:normal;font-variant-caps:normal;font-variant-numeric:normal;font-variant-east-asian:normal;fill:#3888c3;fill-opacity:1;stroke-width:0"
         x="111.08448"
         y="268.92685">Godot</tspan></text><g
       inkscape:label="Layer 1"
       id="layer1-57"
       transform="matrix(0.44618952,0,0,0.44618952,391.30268,202.92736)"><text
         xml:space="preserve"
         transform="matrix(0.37000894,0,0,0.43942599,-16.847341,-69.196276)"
         id="text234"
         style="font-style:normal;font-variant:normal;font-weight:800;font-stretch:normal;font-size:85.3333px;line-height:1.25;font-family:Montserrat;-inkscape-font-specification:'Montserrat, Ultra-Bold';font-variant-ligatures:normal;font-variant-caps:normal;font-variant-numeric:normal;font-variant-east-asian:normal;white-space:pre;shape-inside:url(#rect236);display:inline;fill:url(#linearGradient1034);fill-opacity:1;stroke:none"><tspan
           x="68.775391"
           y="498.49373"
           id="tspan7">william<tspan
   style="font-weight:normal;font-family:'Montserrat Alternates';-inkscape-font-specification:'Montserrat Alternates, Normal'"
   id="tspan6">v4</tspan></tspan></text><path
         id="path1314"
         style="fill:none;stroke:#35cca3;stroke-width:2.12835;stroke-linecap:round;stroke-linejoin:round"
         inkscape:transform-center-x="1.8515928"
         inkscape:transform-center-y="0.028968405"
         d="m 176.47638,100.32144 -11.22376,11.2756 11.16668,11.44943"
         sodipodi:nodetypes="ccc" /><path
         id="path1314-1"
         style="fill:none;stroke:#35cca3;stroke-width:2.12835;stroke-linecap:round;stroke-linejoin:round"
         inkscape:transform-center-x="-1.8504364"
         inkscape:transform-center-y="-0.029725199"
         d="M 197.7912,123.04616 209.01725,111.77284 197.8529,100.32113"
         sodipodi:nodetypes="ccc" /><g
         style="fill:#35cca3;fill-opacity:1"
         id="g8203"
         transform="matrix(1.0992578,0,0,1.0992578,174.34858,98.856945)"><path
           d="M 17,10 V 6 A 2,2 0 0 0 14.891,4 2.118,2.118 0 0 0 13,6.17 V 18 A 4.017,4.017 0 0 1 11.754,20.9 3.968,3.968 0 0 1 9,22 C 8.929,22 8.857,22 8.785,22 A 4.089,4.089 0 0 1 5,17.83 V 14 A 1,1 0 0 0 4,13 H 3 a 1,1 0 0 1 0,-2 h 1 a 3,3 0 0 1 3,3 v 3.83 A 2.118,2.118 0 0 0 8.891,20 2,2 0 0 0 11,18 V 6.17 A 4.089,4.089 0 0 1 14.787,2.005 4,4 0 0 1 19,6 v 4 a 1,1 0 0 0 1,1 h 1 a 1,1 0 0 1 0,2 h -1 a 3,3 0 0 1 -3,-3 z"
           id="path8194"
           style="fill:#35cca3;fill-opacity:1" /></g></g></g></svg>
